<svg width="30" height="30" viewBox="0 0 30 30" fill="none" xmlns="http://www.w3.org/2000/svg">
<path fill-rule="evenodd" clip-rule="evenodd" d="M5 5C4.66848 5 4.35054 5.1317 4.11612 5.36612C3.8817 5.60054 3.75 5.91848 3.75 6.25V18.75C3.75 19.0815 3.8817 19.3995 4.11612 19.6339C4.35054 19.8683 4.66848 20 5 20H6.25C6.94036 20 7.5 20.5596 7.5 21.25C7.5 21.9404 6.94036 22.5 6.25 22.5H5C4.00544 22.5 3.05161 22.1049 2.34835 21.4016C1.64509 20.6984 1.25 19.7446 1.25 18.75V6.25C1.25 5.25544 1.64509 4.30161 2.34835 3.59835C3.05161 2.89509 4.00544 2.5 5 2.5H25C25.9946 2.5 26.9484 2.89509 27.6517 3.59835C28.3549 4.30161 28.75 5.25544 28.75 6.25V18.75C28.75 19.7446 28.3549 20.6984 27.6517 21.4016C26.9484 22.1049 25.9946 22.5 25 22.5H23.75C23.0596 22.5 22.5 21.9404 22.5 21.25C22.5 20.5596 23.0596 20 23.75 20H25C25.3315 20 25.6495 19.8683 25.8839 19.6339C26.1183 19.3995 26.25 19.0815 26.25 18.75V6.25C26.25 5.91848 26.1183 5.60054 25.8839 5.36612C25.6495 5.1317 25.3315 5 25 5H5Z" fill="#0074D9"/>
<path fill-rule="evenodd" clip-rule="evenodd" d="M15 17.5C15.371 17.5 15.7228 17.6648 15.9603 17.9498L22.2103 25.4498C22.5208 25.8224 22.5877 26.341 22.382 26.7802C22.1763 27.2194 21.735 27.5 21.25 27.5H8.75002C8.26499 27.5 7.82375 27.2194 7.61803 26.7802C7.4123 26.341 7.47924 25.8224 7.78974 25.4498L14.0397 17.9498C14.2772 17.6648 14.629 17.5 15 17.5ZM11.4188 25H18.5812L15 20.7026L11.4188 25Z" fill="#0074D9"/>
</svg>
