<svg width="28" height="26" viewBox="0 0 28 26" fill="none" xmlns="http://www.w3.org/2000/svg">
<path fill-rule="evenodd" clip-rule="evenodd" d="M4 8C3.30964 8 2.75 8.55964 2.75 9.25V21.75C2.75 22.4404 3.30964 23 4 23H24C24.6904 23 25.25 22.4404 25.25 21.75V9.25C25.25 8.55964 24.6904 8 24 8H4ZM0.25 9.25C0.25 7.17893 1.92893 5.5 4 5.5H24C26.0711 5.5 27.75 7.17893 27.75 9.25V21.75C27.75 23.8211 26.0711 25.5 24 25.5H4C1.92893 25.5 0.25 23.8211 0.25 21.75V9.25Z" fill="#0074D9"/>
<path fill-rule="evenodd" clip-rule="evenodd" d="M8.84835 1.59835C9.55161 0.895088 10.5054 0.5 11.5 0.5H16.5C17.4946 0.5 18.4484 0.895088 19.1516 1.59835C19.8549 2.30161 20.25 3.25544 20.25 4.25V24.25C20.25 24.9404 19.6904 25.5 19 25.5C18.3096 25.5 17.75 24.9404 17.75 24.25V4.25C17.75 3.91848 17.6183 3.60054 17.3839 3.36612C17.1495 3.1317 16.8315 3 16.5 3H11.5C11.1685 3 10.8505 3.1317 10.6161 3.36612C10.3817 3.60054 10.25 3.91848 10.25 4.25V24.25C10.25 24.9404 9.69036 25.5 9 25.5C8.30964 25.5 7.75 24.9404 7.75 24.25V4.25C7.75 3.25544 8.14509 2.30161 8.84835 1.59835Z" fill="#0074D9"/>
</svg>
