<svg width="30" height="30" viewBox="0 0 30 30" fill="none" xmlns="http://www.w3.org/2000/svg">
<g clip-path="url(#clip0)">
<path fill-rule="evenodd" clip-rule="evenodd" d="M20 15C20.6904 15 21.25 15.5596 21.25 16.25V26.25C21.25 26.9404 20.6904 27.5 20 27.5C19.3096 27.5 18.75 26.9404 18.75 26.25V16.25C18.75 15.5596 19.3096 15 20 15Z" fill="#0074D9"/>
<path fill-rule="evenodd" clip-rule="evenodd" d="M10 15C10.6904 15 11.25 15.5596 11.25 16.25V26.25C11.25 26.9404 10.6904 27.5 10 27.5C9.30964 27.5 8.75 26.9404 8.75 26.25V16.25C8.75 15.5596 9.30964 15 10 15Z" fill="#0074D9"/>
<path fill-rule="evenodd" clip-rule="evenodd" d="M15 17.5C15.6904 17.5 16.25 18.0596 16.25 18.75V28.75C16.25 29.4404 15.6904 30 15 30C14.3096 30 13.75 29.4404 13.75 28.75V18.75C13.75 18.0596 14.3096 17.5 15 17.5Z" fill="#0074D9"/>
<path fill-rule="evenodd" clip-rule="evenodd" d="M10.103 0.0582431C11.8766 -0.122357 13.6677 0.121135 15.3288 0.76865C16.9898 1.41616 18.4731 2.44916 19.6566 3.78249C20.6225 4.87084 21.3661 6.13385 21.8492 7.50001H22.5015C24.223 7.50203 25.8914 8.0962 27.2266 9.18276C28.5618 10.2693 29.4826 11.7821 29.8344 13.4673C30.1862 15.1524 29.9476 16.9073 29.1586 18.4373C28.3697 19.9673 27.0784 21.1794 25.5015 21.87C24.8691 22.147 24.132 21.8588 23.855 21.2265C23.5781 20.5941 23.8662 19.857 24.4986 19.58C25.5498 19.1196 26.4107 18.3116 26.9367 17.2915C27.4626 16.2715 27.6217 15.1016 27.3872 13.9782C27.1526 12.8548 26.5388 11.8462 25.6486 11.1218C24.7586 10.3976 23.6465 10.0015 22.4991 10C22.4989 10 22.4992 10 22.4991 10H20.925C20.3551 10 19.8573 9.61443 19.7147 9.06255C19.368 7.72 18.7072 6.47906 17.7868 5.44202C16.8664 4.40498 15.7126 3.60154 14.4207 3.09792C13.1288 2.5943 11.7357 2.40492 10.3563 2.54538C8.97681 2.68585 7.65048 3.15214 6.4866 3.90583C5.32272 4.65952 4.35463 5.67902 3.66211 6.8803C2.96959 8.08158 2.57248 9.43024 2.50351 10.8151C2.43454 12.2 2.69568 13.5815 3.26541 14.8456C3.83514 16.1097 4.69714 17.2204 5.78037 18.086C6.31969 18.517 6.40752 19.3035 5.97656 19.8428C5.5456 20.3822 4.75903 20.47 4.21971 20.039C2.82699 18.9261 1.7187 17.4981 0.986187 15.8728C0.253677 14.2475 -0.0820753 12.4713 0.00660366 10.6908C0.0952827 8.91021 0.605854 7.17621 1.49623 5.63171C2.38661 4.0872 3.63131 2.77642 5.12772 1.80739C6.62413 0.838365 8.32942 0.238844 10.103 0.0582431Z" fill="#0074D9"/>
</g>
<defs>
<clipPath id="clip0">
<rect width="30" height="30" fill="white"/>
</clipPath>
</defs>
</svg>
