<svg width="30" height="30" viewBox="0 0 30 30" fill="none" xmlns="http://www.w3.org/2000/svg">
<path fill-rule="evenodd" clip-rule="evenodd" d="M14.9995 2.11243C15.3313 2.11228 15.6494 2.24399 15.884 2.47854L22.9587 9.55325C22.9588 9.55335 22.9586 9.55316 22.9587 9.55325C24.5326 11.1263 25.605 13.131 26.0396 15.3133C26.4743 17.4958 26.252 19.7582 25.4007 21.8143C24.5494 23.8704 23.1075 25.6278 21.2573 26.8643C19.4071 28.1008 17.2317 28.7608 15.0064 28.7608C12.781 28.7608 10.6056 28.1008 8.75542 26.8643C6.90521 25.6278 5.46327 23.8704 4.612 21.8143C3.76073 19.7582 3.53838 17.4958 3.97306 15.3133C4.40767 13.1312 5.47959 11.1269 7.05326 9.554C7.05351 9.55375 7.05301 9.55425 7.05326 9.554L14.1154 2.47933C14.3498 2.24456 14.6678 2.11257 14.9995 2.11243ZM15.0009 5.13098L8.8212 11.3216C7.59691 12.5451 6.76299 14.1042 6.4249 15.8017C6.08682 17.4992 6.25976 19.2588 6.92186 20.858C7.58396 22.4572 8.70546 23.8241 10.1445 24.7858C11.5836 25.7475 13.2755 26.2608 15.0064 26.2608C16.7372 26.2608 18.4291 25.7475 19.8682 24.7858C21.3072 23.8241 22.4287 22.4572 23.0908 20.858C23.7529 19.2588 23.9259 17.4992 23.5878 15.8017C23.2497 14.1042 22.4158 12.5451 21.1915 11.3216L15.0009 5.13098Z" fill="#0074D9"/>
</svg>
