<svg width="30" height="30" viewBox="0 0 30 30" fill="none" xmlns="http://www.w3.org/2000/svg">
<path fill-rule="evenodd" clip-rule="evenodd" d="M14.4449 2.93142C14.4446 2.93161 14.4442 2.93179 14.4438 2.93198L4.44658 7.9306L4.44381 7.93198C4.23555 8.03546 4.06029 8.19499 3.93774 8.39263C3.81522 8.5902 3.75023 8.81802 3.75006 9.05049C3.75006 9.05041 3.75006 9.05057 3.75006 9.05049V20.9588C3.74844 21.1917 3.81192 21.4205 3.9334 21.6193C4.05468 21.8177 4.22891 21.9784 4.43651 22.0832C4.43616 22.0831 4.43685 22.0834 4.43651 22.0832L14.4341 27.082C14.6077 27.1689 14.7996 27.2144 14.9938 27.2144C15.188 27.2144 15.3795 27.1691 15.5532 27.0822L25.5535 22.082L25.5563 22.0807C25.7646 21.9772 25.9398 21.8176 26.0624 21.62C26.1849 21.4224 26.2499 21.1945 26.2501 20.9619V9.05073C26.2499 8.81818 26.1849 8.59027 26.0624 8.39263C25.9398 8.19499 25.7646 8.03546 25.5563 7.93198L25.5535 7.9306L15.5563 2.93198C15.5559 2.93179 15.5556 2.93161 15.5552 2.93142C15.3826 2.84589 15.1927 2.80139 15.0001 2.80139C14.8075 2.80139 14.6175 2.84589 14.4449 2.93142ZM16.1126 1.81257L16.6688 0.693152C16.1503 0.435481 15.5791 0.301392 15.0001 0.301392C14.421 0.301392 13.8499 0.435481 13.3313 0.693152L13.3285 0.694531L3.33131 5.69315C3.3308 5.69341 3.33028 5.69366 3.32977 5.69392C2.70567 6.0044 2.18045 6.48269 1.81308 7.07511C1.44541 7.66802 1.25043 8.35174 1.25006 9.0494L1.25006 20.9462C1.2461 21.6434 1.43659 22.3279 1.80019 22.9229C2.16463 23.5192 2.68846 24.0019 3.31259 24.3164L3.31604 24.3181L13.3157 29.3179C13.8367 29.5786 14.4112 29.7144 14.9938 29.7144C15.5763 29.7144 16.1507 29.5787 16.6716 29.3181C16.6717 29.318 16.6715 29.3182 16.6716 29.3181L26.6688 24.3195C26.6692 24.3193 26.6696 24.3191 26.6701 24.3189C27.2943 24.0084 27.8196 23.53 28.187 22.9375C28.5547 22.3446 28.7497 21.6609 28.7501 20.9632V9.05007C28.7497 8.35241 28.5547 7.66802 28.187 7.07511C27.8197 6.48271 27.2945 6.00443 26.6704 5.69395C26.6699 5.69368 26.6693 5.69342 26.6688 5.69315L16.6716 0.694531L16.1126 1.81257Z" fill="#0074D9"/>
<path fill-rule="evenodd" clip-rule="evenodd" d="M1.78203 7.14105C2.09076 6.52358 2.8416 6.27329 3.45908 6.58203L15.0001 12.3525L26.541 6.58203C27.1585 6.27329 27.9094 6.52358 28.2181 7.14105C28.5268 7.75852 28.2766 8.50936 27.6591 8.8181L15.5591 14.8681C15.2072 15.0441 14.793 15.0441 14.441 14.8681L2.34104 8.8181C1.72357 8.50936 1.47329 7.75852 1.78203 7.14105Z" fill="#0074D9"/>
<path fill-rule="evenodd" clip-rule="evenodd" d="M15.0001 12.5001C15.6904 12.5001 16.2501 13.0597 16.2501 13.7501V28.4501C16.2501 29.1404 15.6904 29.7001 15.0001 29.7001C14.3097 29.7001 13.7501 29.1404 13.7501 28.4501V13.7501C13.7501 13.0597 14.3097 12.5001 15.0001 12.5001Z" fill="#0074D9"/>
<path fill-rule="evenodd" clip-rule="evenodd" d="M7.63203 3.81605C7.94076 3.19858 8.69161 2.94829 9.30908 3.25703L21.8091 9.50703C22.4266 9.81577 22.6768 10.5666 22.3681 11.1841C22.0594 11.8016 21.3085 12.0518 20.691 11.7431L8.19104 5.4931C7.57357 5.18436 7.32329 4.43352 7.63203 3.81605Z" fill="#0074D9"/>
</svg>
