<svg width="108" height="108" viewBox="0 0 108 108" fill="none" xmlns="http://www.w3.org/2000/svg">
<g filter="url(#filter0_d)">
<circle cx="54" cy="50" r="50" fill="#A8DAFF"/>
<path fill-rule="evenodd" clip-rule="evenodd" d="M63.1575 29.4334C58.7256 27.4586 53.7741 26.9694 49.0414 28.0387C44.3088 29.108 40.0485 31.6784 36.8961 35.3668C33.7437 39.0551 31.868 43.6636 31.5488 48.5051C31.2295 53.3465 32.4839 58.1614 35.1247 62.2318C37.7655 66.3021 41.6513 69.4097 46.2026 71.0912C50.7538 72.7726 55.7267 72.9378 60.3796 71.5621C65.0324 70.1864 69.1159 67.3436 72.021 63.4575C74.9261 59.5714 76.4972 54.8503 76.5 49.9984V47.6998C76.5 46.3191 77.6193 45.1998 79 45.1998C80.3807 45.1998 81.5 46.3191 81.5 47.6998V49.9998C81.4966 55.9299 79.5764 61.7016 76.0257 66.4512C72.475 71.2009 67.484 74.6755 61.7972 76.3569C56.1104 78.0383 50.0325 77.8364 44.4698 75.7813C38.9071 73.7262 34.1578 69.928 30.9301 64.9531C27.7025 59.9783 26.1694 54.0934 26.5596 48.1761C26.9498 42.2588 29.2423 36.6261 33.0953 32.1182C36.9482 27.6102 42.1552 24.4685 47.9395 23.1616C53.7239 21.8547 59.7757 22.4526 65.1925 24.8662C66.4537 25.4282 67.0205 26.9061 66.4586 28.1673C65.8966 29.4285 64.4187 29.9953 63.1575 29.4334Z" fill="#0074D9"/>
<path fill-rule="evenodd" clip-rule="evenodd" d="M80.7669 28.2313C81.7437 29.2072 81.7445 30.7901 80.7687 31.7669L55.7687 56.7919C55.2999 57.2611 54.6639 57.5248 54.0006 57.525C53.3374 57.5252 52.7012 57.2618 52.2322 56.7928L44.7322 49.2928C43.7559 48.3165 43.7559 46.7335 44.7322 45.7572C45.7085 44.7809 47.2915 44.7809 48.2678 45.7572L53.9991 51.4886L77.2313 28.2331C78.2072 27.2563 79.7901 27.2555 80.7669 28.2313Z" fill="#0074D9"/>
</g>
<defs>
<filter id="filter0_d" x="0" y="0" width="108" height="108" filterUnits="userSpaceOnUse" color-interpolation-filters="sRGB">
<feFlood flood-opacity="0" result="BackgroundImageFix"/>
<feColorMatrix in="SourceAlpha" type="matrix" values="0 0 0 0 0 0 0 0 0 0 0 0 0 0 0 0 0 0 127 0"/>
<feOffset dy="4"/>
<feGaussianBlur stdDeviation="2"/>
<feColorMatrix type="matrix" values="0 0 0 0 0 0 0 0 0 0 0 0 0 0 0 0 0 0 0.1 0"/>
<feBlend mode="normal" in2="BackgroundImageFix" result="effect1_dropShadow"/>
<feBlend mode="normal" in="SourceGraphic" in2="effect1_dropShadow" result="shape"/>
</filter>
</defs>
</svg>
