<svg width="30" height="30" viewBox="0 0 30 30" fill="none" xmlns="http://www.w3.org/2000/svg">
<path fill-rule="evenodd" clip-rule="evenodd" d="M25.7051 4.1446C25.4007 3.88326 25.0108 3.7428 24.6096 3.74989L24.5875 3.75009H22.5V15.0001H24.5875L24.6096 15.0003C25.0108 15.0074 25.4007 14.8669 25.7051 14.6056C25.9913 14.36 26.1833 14.0237 26.25 13.654V5.09617C26.1833 4.72652 25.9913 4.39021 25.7051 4.1446ZM20 15.9848L15.4903 26.1318C15.1135 26.0117 14.7671 25.8027 14.4823 25.5179C14.0134 25.049 13.75 24.4131 13.75 23.7501V18.7501C13.75 18.0597 13.1904 17.5001 12.5 17.5001H5.42504L5.41088 17.5002C5.22969 17.5022 5.05022 17.4649 4.8849 17.3907C4.71958 17.3165 4.57237 17.2072 4.45347 17.0705C4.33457 16.9337 4.24682 16.7728 4.1963 16.5988C4.14584 16.425 4.13372 16.2423 4.16077 16.0634C4.16074 16.0636 4.16081 16.0631 4.16077 16.0634L5.88591 4.81251C5.93111 4.51444 6.08251 4.24275 6.31222 4.0475C6.54192 3.85225 6.83445 3.7466 7.13591 3.75001L20 3.75009V15.9848ZM24.5775 1.25009C25.5869 1.23517 26.5672 1.58987 27.3335 2.24761C28.1028 2.90797 28.6029 3.82782 28.7388 4.83253C28.7463 4.88807 28.75 4.94405 28.75 5.00009V13.7501C28.75 13.8061 28.7463 13.8621 28.7388 13.9176C28.6029 14.9224 28.1028 15.8422 27.3335 16.5026C26.5672 17.1603 25.5869 17.515 24.5775 17.5001H22.0624L17.3923 28.0078C17.1917 28.4592 16.744 28.7501 16.25 28.7501C14.924 28.7501 13.6522 28.2233 12.7145 27.2856C11.7768 26.3479 11.25 25.0762 11.25 23.7501V20.0001H5.43143C4.89049 20.0051 4.35484 19.893 3.86125 19.6715C3.36529 19.4489 2.92367 19.1211 2.56696 18.7109C2.21025 18.3007 1.947 17.8178 1.79543 17.2958C1.64387 16.7737 1.60762 16.225 1.68919 15.6875L3.41417 4.43767C3.41423 4.43729 3.41411 4.43804 3.41417 4.43767C3.54998 3.54391 4.00427 2.72816 4.6931 2.14265C5.38024 1.55859 6.25477 1.24176 7.15639 1.25009H24.5775Z" fill="#0074D9"/>
</svg>
