<svg width="30" height="30" viewBox="0 0 30 30" fill="none" xmlns="http://www.w3.org/2000/svg">
<path fill-rule="evenodd" clip-rule="evenodd" d="M12.6077 1.99233C12.8084 1.54092 13.256 1.25 13.75 1.25C15.0761 1.25 16.3479 1.77678 17.2855 2.71447C18.2232 3.65215 18.75 4.92392 18.75 6.25V10H24.5686C25.1095 9.99499 25.6452 10.1071 26.1388 10.3286C26.6347 10.5512 27.0764 10.879 27.4331 11.2892C27.7898 11.6994 28.053 12.1822 28.2046 12.7043C28.3562 13.2264 28.3924 13.7751 28.3108 14.3126L26.5859 25.5624C26.5858 25.5627 26.5859 25.5621 26.5859 25.5624C26.4501 26.4562 25.9958 27.2719 25.3069 27.8574C24.6198 28.4415 23.7452 28.7584 22.8435 28.75H5C4.00544 28.75 3.05161 28.3549 2.34835 27.6517C1.64509 26.9484 1.25 25.9946 1.25 25V16.25C1.25 15.2554 1.64509 14.3016 2.34835 13.5984C3.05161 12.8951 4.00544 12.5 5 12.5H7.93766L12.6077 1.99233ZM10 14.0153L14.5098 3.86825C14.8865 3.98844 15.233 4.19743 15.5178 4.48223C15.9866 4.95107 16.25 5.58696 16.25 6.25V11.25C16.25 11.9404 16.8096 12.5 17.5 12.5H24.575L24.5892 12.4999C24.7703 12.4979 24.9498 12.5352 25.1151 12.6094C25.2805 12.6836 25.4277 12.7929 25.5466 12.9296C25.6655 13.0664 25.7532 13.2273 25.8037 13.4013C25.8542 13.5752 25.8663 13.7579 25.8392 13.9369C25.8393 13.9368 25.8392 13.9371 25.8392 13.9369L24.1141 25.1876C24.0689 25.4856 23.9175 25.7573 23.6878 25.9526C23.4581 26.1478 23.1656 26.2535 22.8641 26.2501L10 26.25V14.0153ZM7.5 26.25V15H5C4.66848 15 4.35054 15.1317 4.11612 15.3661C3.8817 15.6005 3.75 15.9185 3.75 16.25V25C3.75 25.3315 3.8817 25.6495 4.11612 25.8839C4.35054 26.1183 4.66848 26.25 5 26.25H7.5Z" fill="#0074D9"/>
</svg>
