<svg width="30" height="30" viewBox="0 0 30 30" fill="none" xmlns="http://www.w3.org/2000/svg">
<path d="M6.24994 16.875C5.87494 16.875 5.49994 16.75 5.24994 16.375C4.74994 15.875 4.87494 15 5.37494 14.625C10.9999 10 18.9999 10 24.6249 14.625C25.1249 15.125 25.2499 15.875 24.7499 16.375C24.2499 16.875 23.4999 17 22.9999 16.5C18.3749 12.625 11.6249 12.625 6.99994 16.5C6.87494 16.875 6.49994 16.875 6.24994 16.875Z" fill="#0074D9"/>
<path d="M1.74994 12.5C1.37494 12.5 0.99994 12.375 0.74994 12.125C0.24994 11.625 0.37494 10.875 0.87494 10.375C8.87494 3.375 20.9999 3.375 28.9999 10.375C29.4999 10.875 29.6249 11.625 29.1249 12.125C28.6249 12.625 27.8749 12.75 27.3749 12.25C20.2499 6 9.62494 6 2.62494 12.25C2.37494 12.375 2.12494 12.5 1.74994 12.5Z" fill="#0074D9"/>
<path d="M19.3749 21.375C19.1249 21.375 18.8749 21.25 18.6249 21.125C16.4999 19.625 13.4999 19.625 11.3749 21.125C10.7499 21.5 9.99994 21.375 9.62494 20.875C9.24994 20.25 9.37494 19.5 9.87494 19.125C12.8749 17 16.9999 17 19.9999 19.125C20.6249 19.5 20.7499 20.25 20.2499 20.875C20.1249 21.25 19.7499 21.375 19.3749 21.375Z" fill="#0074D9"/>
<path d="M14.9999 26.25C14.8749 26.25 14.6249 26.25 14.4999 26.125C14.3749 26.125 14.2499 26 14.1249 25.875C13.8749 25.625 13.7499 25.375 13.7499 25C13.7499 24.875 13.7499 24.625 13.8749 24.5C13.9999 24.375 13.9999 24.25 14.1249 24.125C14.6249 23.625 15.3749 23.625 15.8749 24.125C16.1249 24.375 16.2499 24.75 16.2499 25C16.2499 25.375 16.1249 25.625 15.8749 25.875C15.6249 26.125 15.3749 26.25 14.9999 26.25Z" fill="#0074D9"/>
</svg>
