<svg width="108" height="108" viewBox="0 0 108 108" fill="none" xmlns="http://www.w3.org/2000/svg">
<g filter="url(#filter0_d)">
<circle cx="54" cy="50" r="50" fill="#A8DAFF"/>
<path fill-rule="evenodd" clip-rule="evenodd" d="M52.0058 32.5475C51.6018 32.4676 51.1842 32.4888 50.7903 32.6092C50.3964 32.7295 50.0384 32.9454 49.748 33.2375C48.7746 34.2167 47.1917 34.2214 46.2125 33.248C45.2333 32.2745 45.2286 30.6916 46.202 29.7124C47.0732 28.8361 48.1473 28.1886 49.329 27.8275C50.5107 27.4663 51.7634 27.4028 52.9755 27.6424C54.1877 27.882 55.3219 28.4175 56.2773 29.2011C57.2327 29.9847 57.9797 30.9923 58.4519 32.1342C58.924 33.276 59.1067 34.5169 58.9838 35.7464C58.8608 36.9759 58.4359 38.156 57.747 39.1818C57.058 40.2075 56.1263 41.0472 55.0346 41.6261C53.9447 42.204 52.7291 42.5042 51.4955 42.5C51.4935 42.5 51.4915 42.4999 51.4895 42.4999L51.5 40V42.5H51.4955H29C27.6193 42.5 26.5 41.3807 26.5 40C26.5 38.6192 27.6193 37.5 29 37.5H51.5105C51.9224 37.5017 52.3283 37.4016 52.6922 37.2087C53.0561 37.0157 53.3667 36.7358 53.5963 36.3939C53.826 36.052 53.9676 35.6586 54.0086 35.2488C54.0496 34.839 53.9887 34.4253 53.8313 34.0447C53.6739 33.6641 53.4249 33.3282 53.1064 33.067C52.788 32.8058 52.4099 32.6273 52.0058 32.5475ZM73.4723 40.0724C72.868 39.9519 72.2433 39.9821 71.6534 40.1605C71.0636 40.3388 70.5268 40.6598 70.0905 41.095C69.113 42.07 67.5301 42.068 66.555 41.0905C65.5799 40.1129 65.5819 38.53 66.5595 37.555C67.5774 36.5396 68.83 35.7907 70.2062 35.3745C71.5825 34.9583 73.0401 34.8877 74.4502 35.169C75.8602 35.4502 77.1792 36.0745 78.2906 36.9868C79.4019 37.8991 80.2713 39.0711 80.8219 40.3994C81.3725 41.7276 81.5872 43.171 81.4472 44.602C81.3072 46.033 80.8167 47.4074 80.0192 48.6037C79.2216 49.8001 78.1415 50.7814 76.8744 51.461C75.6073 52.1405 74.1923 52.4974 72.7545 52.5L72.75 52.5H29C27.6193 52.5 26.5 51.3807 26.5 50C26.5 48.6192 27.6193 47.5 29 47.5H72.7473C73.3629 47.4986 73.9687 47.3456 74.5112 47.0547C75.0542 46.7634 75.5171 46.3429 75.859 45.8302C76.2008 45.3174 76.411 44.7284 76.471 44.1151C76.531 43.5019 76.4389 42.8832 76.203 42.314C75.967 41.7448 75.5944 41.2424 75.1181 40.8515C74.6419 40.4605 74.0766 40.1929 73.4723 40.0724ZM58.9951 57.5C60.2288 57.4957 61.4446 57.7959 62.5346 58.3739C63.6263 58.9527 64.558 59.7924 65.247 60.8181C65.9359 61.8439 66.3608 63.024 66.4838 64.2535C66.6067 65.483 66.424 66.7239 65.9519 67.8658C65.4797 69.0076 64.7327 70.0152 63.7773 70.7988C62.8219 71.5824 61.6877 72.1179 60.4755 72.3575C59.2634 72.5972 58.0107 72.5336 56.829 72.1725C55.6473 71.8113 54.5732 71.1638 53.702 70.2875C52.7286 69.3083 52.7333 67.7254 53.7125 66.752C54.6917 65.7785 56.2746 65.7832 57.248 66.7624C57.5384 67.0545 57.8964 67.2704 58.2903 67.3908C58.6842 67.5111 59.1018 67.5323 59.5058 67.4524C59.9099 67.3726 60.288 67.1941 60.6064 66.9329C60.9249 66.6717 61.1739 66.3358 61.3313 65.9552C61.4887 65.5746 61.5496 65.1609 61.5086 64.7511C61.4676 64.3413 61.326 63.9479 61.0963 63.606C60.8667 63.2641 60.5561 62.9842 60.1922 62.7912C59.8283 62.5983 59.4224 62.4982 59.0105 62.4999L59 62.5H29C27.6193 62.5 26.5 61.3807 26.5 60C26.5 58.6192 27.6193 57.5 29 57.5H58.9951Z" fill="#0074D9"/>
</g>
<defs>
<filter id="filter0_d" x="0" y="0" width="108" height="108" filterUnits="userSpaceOnUse" color-interpolation-filters="sRGB">
<feFlood flood-opacity="0" result="BackgroundImageFix"/>
<feColorMatrix in="SourceAlpha" type="matrix" values="0 0 0 0 0 0 0 0 0 0 0 0 0 0 0 0 0 0 127 0"/>
<feOffset dy="4"/>
<feGaussianBlur stdDeviation="2"/>
<feColorMatrix type="matrix" values="0 0 0 0 0 0 0 0 0 0 0 0 0 0 0 0 0 0 0.1 0"/>
<feBlend mode="normal" in2="BackgroundImageFix" result="effect1_dropShadow"/>
<feBlend mode="normal" in="SourceGraphic" in2="effect1_dropShadow" result="shape"/>
</filter>
</defs>
</svg>
