<svg width="20" height="20" viewBox="0 0 20 20" fill="none" xmlns="http://www.w3.org/2000/svg">
<path fill-rule="evenodd" clip-rule="evenodd" d="M10.8276 1.47972C11.1566 1.62257 11.3522 1.96528 11.3077 2.32126L10.6131 7.878H16.9709C17.2844 7.878 17.5697 8.0594 17.7027 8.34337C17.8357 8.62733 17.7924 8.96261 17.5917 9.2035L9.51031 18.9012C9.28064 19.1768 8.89677 19.268 8.56768 19.1251C8.23859 18.9823 8.04308 18.6396 8.08758 18.2836L8.78217 12.7268H2.42436C2.11079 12.7268 1.82552 12.5454 1.69252 12.2615C1.55951 11.9775 1.60279 11.6422 1.80353 11.4013L9.88493 1.70367C10.1146 1.42807 10.4985 1.33687 10.8276 1.47972ZM4.14977 11.1106H9.69762C9.92942 11.1106 10.1501 11.2101 10.3035 11.3839C10.4569 11.5576 10.5283 11.7889 10.4995 12.0189L10.0333 15.7489L15.2455 9.49428H9.69762C9.46582 9.49428 9.24518 9.39475 9.09177 9.22097C8.93837 9.0472 8.86697 8.81592 8.89572 8.58591L9.36196 4.85593L4.14977 11.1106Z" fill="#BDBDBD"/>
</svg>
