<svg width="122" height="26" viewBox="0 0 122 26" fill="none" xmlns="http://www.w3.org/2000/svg">
<g clip-path="url(#clip0)">
<path fill-rule="evenodd" clip-rule="evenodd" d="M4.20033 4.4586C6.59271 2.28371 9.70983 1.07861 12.943 1.07861C16.1762 1.07861 19.2934 2.28371 21.6857 4.4586C24.0781 6.63349 25.5739 9.62199 25.8812 12.8406C25.9101 13.1431 25.81 13.4437 25.6056 13.6686C25.4011 13.8934 25.1114 14.0216 24.8075 14.0216H14.0216V20.4932C14.0216 21.0653 14.2489 21.614 14.6534 22.0185C15.058 22.423 15.6067 22.6503 16.1788 22.6503C16.7509 22.6503 17.2996 22.423 17.7041 22.0185C18.1087 21.614 18.336 21.0653 18.336 20.4932C18.336 19.8975 18.8189 19.4146 19.4145 19.4146C20.0102 19.4146 20.4931 19.8975 20.4931 20.4932C20.4931 21.6374 20.0386 22.7348 19.2295 23.5439C18.4204 24.3529 17.323 24.8075 16.1788 24.8075C15.0346 24.8075 13.9372 24.3529 13.1281 23.5439C12.319 22.7348 11.8644 21.6374 11.8644 20.4932V14.0216H1.07859C0.774704 14.0216 0.484917 13.8934 0.280501 13.6686C0.0760853 13.4437 -0.0239914 13.1431 0.00488474 12.8406C0.312112 9.62199 1.80796 6.63349 4.20033 4.4586ZM23.5549 11.8645C23.0907 9.63619 21.9338 7.59944 20.2347 6.05478C18.2394 4.24087 15.6396 3.23578 12.943 3.23578C10.2465 3.23578 7.6467 4.24087 5.6514 6.05478C3.95227 7.59944 2.79537 9.63619 2.33112 11.8645H23.5549Z" fill="#FFFFFF"/>
</g>
<path d="M42.9374 6.32422V13.3079C42.9327 14.2767 42.627 15.0691 42.0204 15.6852C41.4184 16.3013 40.6001 16.6469 39.5655 16.7222L39.2057 16.7363C38.0817 16.7363 37.1859 16.433 36.5181 15.8263C35.8503 15.2196 35.5116 14.3849 35.5022 13.322V6.32422H36.8426V13.2797C36.8426 14.0228 37.0471 14.6012 37.4563 15.0151C37.8654 15.4242 38.4486 15.6288 39.2057 15.6288C39.9723 15.6288 40.5578 15.4242 40.9622 15.0151C41.3714 14.6059 41.576 14.0298 41.576 13.2868V6.32422H42.9374ZM46.0977 8.96251L46.133 9.80902C46.6926 9.15063 47.4474 8.82143 48.3974 8.82143C49.465 8.82143 50.1915 9.23058 50.5772 10.0489C50.8311 9.68205 51.1603 9.38577 51.5648 9.16003C51.9739 8.9343 52.456 8.82143 53.0109 8.82143C54.6851 8.82143 55.5363 9.70791 55.5645 11.4809V16.5952H54.2595V11.5585C54.2595 11.013 54.1349 10.6062 53.8856 10.3381C53.6364 10.0653 53.2178 9.92895 52.63 9.92895C52.1456 9.92895 51.7435 10.0747 51.4237 10.3663C51.1039 10.6532 50.9181 11.0412 50.8664 11.5303V16.5952H49.5543V11.5938C49.5543 10.4839 49.0111 9.92895 47.9248 9.92895C47.0689 9.92895 46.4834 10.2934 46.1683 11.0224V16.5952H44.8632V8.96251H46.0977ZM64.0014 12.8635C64.0014 14.0298 63.7334 14.968 63.1972 15.6782C62.6611 16.3836 61.9416 16.7363 61.0386 16.7363C60.0746 16.7363 59.3292 16.3953 58.8024 15.7134L58.7389 16.5952H57.5397V5.75988H58.8448V9.80197C59.3715 9.14828 60.0981 8.82143 61.0245 8.82143C61.951 8.82143 62.6776 9.17179 63.2043 9.87251C63.7357 10.5732 64.0014 11.5326 64.0014 12.7506V12.8635ZM62.6964 12.7154C62.6964 11.8265 62.5247 11.1399 62.1814 10.6555C61.8381 10.1711 61.3443 9.92895 60.7 9.92895C59.8394 9.92895 59.221 10.3287 58.8448 11.1282V14.4296C59.2445 15.229 59.8676 15.6288 60.7141 15.6288C61.3396 15.6288 61.8264 15.3866 62.1744 14.9022C62.5224 14.4178 62.6964 13.6889 62.6964 12.7154ZM69.3415 10.1335C69.144 10.1006 68.93 10.0841 68.6996 10.0841C67.8436 10.0841 67.2628 10.4486 66.9572 11.1775V16.5952H65.6521V8.96251H66.9219L66.943 9.8443C67.371 9.16238 67.9777 8.82143 68.763 8.82143C69.017 8.82143 69.2098 8.85435 69.3415 8.92019V10.1335ZM73.574 16.7363C72.5394 16.7363 71.6976 16.3977 71.0486 15.7205C70.3996 15.0386 70.0751 14.1286 70.0751 12.9905V12.7506C70.0751 11.9935 70.2186 11.3186 70.5054 10.7261C70.797 10.1288 71.2015 9.66324 71.7188 9.32934C72.2408 8.99073 72.8051 8.82143 73.4118 8.82143C74.4041 8.82143 75.1754 9.14828 75.7256 9.80197C76.2758 10.4557 76.5509 11.3915 76.5509 12.6096V13.1527H71.3802C71.399 13.9052 71.6177 14.5142 72.0362 14.9798C72.4595 15.4407 72.9956 15.6711 73.6446 15.6711C74.1055 15.6711 74.4958 15.5771 74.8156 15.3889C75.1354 15.2008 75.4152 14.9516 75.655 14.6412L76.4522 15.262C75.8126 16.2449 74.8532 16.7363 73.574 16.7363ZM73.4118 9.89368C72.8851 9.89368 72.443 10.0865 72.0856 10.4721C71.7282 10.8531 71.5071 11.3892 71.4225 12.0805H75.2459V11.9817C75.2083 11.3186 75.0296 10.806 74.7098 10.4439C74.39 10.0771 73.9573 9.89368 73.4118 9.89368ZM79.4855 16.5952H78.1805V5.75988H79.4855V16.5952ZM82.9985 16.5952H81.6935V5.75988H82.9985V16.5952ZM89.8059 16.5952C89.7306 16.4447 89.6695 16.1767 89.6225 15.791C89.0158 16.4212 88.2916 16.7363 87.4498 16.7363C86.6973 16.7363 86.0789 16.5247 85.5945 16.1014C85.1148 15.6735 84.875 15.1326 84.875 14.4789C84.875 13.6842 85.1759 13.0681 85.7779 12.6307C86.3846 12.1887 87.2358 11.9676 88.3315 11.9676H89.6013V11.368C89.6013 10.9118 89.4649 10.5497 89.1922 10.2817C88.9194 10.0089 88.5173 9.87251 87.9859 9.87251C87.5203 9.87251 87.13 9.99008 86.8149 10.2252C86.4998 10.4604 86.3422 10.7449 86.3422 11.0788H85.0301C85.0301 10.6979 85.1642 10.331 85.4322 9.97833C85.705 9.62091 86.0718 9.33874 86.5327 9.13182C86.9983 8.92489 87.5085 8.82143 88.0635 8.82143C88.9429 8.82143 89.6319 9.04246 90.1304 9.48453C90.6289 9.92189 90.8875 10.5262 90.9063 11.2975V14.8105C90.9063 15.5112 90.9957 16.0685 91.1744 16.4823V16.5952H89.8059ZM87.6402 15.6006C88.0494 15.6006 88.4374 15.4948 88.8042 15.2831C89.171 15.0715 89.4367 14.7964 89.6013 14.4578V12.8917H88.5784C86.9795 12.8917 86.18 13.3597 86.18 14.2955C86.18 14.7047 86.3164 15.0245 86.5891 15.2549C86.8619 15.4853 87.2123 15.6006 87.6402 15.6006ZM104.634 16.5952H103.272V11.8477H98.0946V16.5952H96.7402V6.32422H98.0946V10.7402H103.272V6.32422H104.634V16.5952ZM111.547 15.8404C111.039 16.4377 110.294 16.7363 109.311 16.7363C108.497 16.7363 107.877 16.5012 107.449 16.0309C107.025 15.5559 106.811 14.8552 106.807 13.9287V8.96251H108.112V13.8934C108.112 15.0503 108.582 15.6288 109.523 15.6288C110.52 15.6288 111.183 15.2573 111.512 14.5142V8.96251H112.817V16.5952H111.575L111.547 15.8404ZM121.268 12.8635C121.268 14.0298 121 14.968 120.464 15.6782C119.928 16.3836 119.208 16.7363 118.305 16.7363C117.341 16.7363 116.596 16.3953 116.069 15.7134L116.005 16.5952H114.806V5.75988H116.111V9.80197C116.638 9.14828 117.364 8.82143 118.291 8.82143C119.217 8.82143 119.944 9.17179 120.471 9.87251C121.002 10.5732 121.268 11.5326 121.268 12.7506V12.8635ZM119.963 12.7154C119.963 11.8265 119.791 11.1399 119.448 10.6555C119.105 10.1711 118.611 9.92895 117.966 9.92895C117.106 9.92895 116.487 10.3287 116.111 11.1282V14.4296C116.511 15.229 117.134 15.6288 117.981 15.6288C118.606 15.6288 119.093 15.3866 119.441 14.9022C119.789 14.4178 119.963 13.6889 119.963 12.7154Z" fill="#FFFFFF"/>
<defs>
<clipPath id="clip0">
<rect width="25.8861" height="25.8861" fill="white"/>
</clipPath>
</defs>
</svg>
